<svg width="1000" height="1000" viewBox="0 0 1000 1000" fill="none" xmlns="http://www.w3.org/2000/svg">
  <defs>
    <linearGradient id="bgGrad" x1="0" y1="0" x2="1000" y2="1000" gradientUnits="userSpaceOnUse">
      <stop offset="0" stop-color="#0D223B"/>
      <stop offset="1" stop-color="#081526"/>
    </linearGradient>
    <linearGradient id="glassGlow" x1="0" y1="0" x2="1000" y2="1000" gradientUnits="userSpaceOnUse">
      <stop offset="0" stop-color="#79FFE0" stop-opacity="0.17"/>
      <stop offset="1" stop-color="#6BC9FF" stop-opacity="0.05"/>
    </linearGradient>
    <filter id="softShadow" x="-20%" y="-20%" width="140%" height="140%">
      <feDropShadow dx="0" dy="1.5" stdDeviation="2.1" flood-color="#04101A" flood-opacity="0.45"/>
    </filter>
  </defs>

  <rect width="1000" height="1000" rx="34" fill="url(#bgGrad)"/>
  <rect x="8" y="8" width="984" height="984" rx="26" fill="#0F2A47" stroke="#6FF7DA" stroke-opacity="0.45" stroke-width="3"/>

  <g clip-path="url(#clipBoard)">
    <rect x="0" y="0" width="100" height="100" fill="#183A5E"/><rect x="100" y="0" width="100" height="100" fill="#21476F"/><rect x="200" y="0" width="100" height="100" fill="#183A5E"/><rect x="300" y="0" width="100" height="100" fill="#21476F"/><rect x="400" y="0" width="100" height="100" fill="#183A5E"/><rect x="500" y="0" width="100" height="100" fill="#21476F"/><rect x="600" y="0" width="100" height="100" fill="#183A5E"/><rect x="700" y="0" width="100" height="100" fill="#21476F"/><rect x="800" y="0" width="100" height="100" fill="#183A5E"/><rect x="900" y="0" width="100" height="100" fill="#21476F"/><rect x="0" y="100" width="100" height="100" fill="#21476F"/><rect x="100" y="100" width="100" height="100" fill="#183A5E"/><rect x="200" y="100" width="100" height="100" fill="#21476F"/><rect x="300" y="100" width="100" height="100" fill="#183A5E"/><rect x="400" y="100" width="100" height="100" fill="#21476F"/><rect x="500" y="100" width="100" height="100" fill="#183A5E"/><rect x="600" y="100" width="100" height="100" fill="#21476F"/><rect x="700" y="100" width="100" height="100" fill="#183A5E"/><rect x="800" y="100" width="100" height="100" fill="#21476F"/><rect x="900" y="100" width="100" height="100" fill="#183A5E"/><rect x="0" y="200" width="100" height="100" fill="#183A5E"/><rect x="100" y="200" width="100" height="100" fill="#21476F"/><rect x="200" y="200" width="100" height="100" fill="#183A5E"/><rect x="300" y="200" width="100" height="100" fill="#21476F"/><rect x="400" y="200" width="100" height="100" fill="#183A5E"/><rect x="500" y="200" width="100" height="100" fill="#21476F"/><rect x="600" y="200" width="100" height="100" fill="#183A5E"/><rect x="700" y="200" width="100" height="100" fill="#21476F"/><rect x="800" y="200" width="100" height="100" fill="#183A5E"/><rect x="900" y="200" width="100" height="100" fill="#21476F"/><rect x="0" y="300" width="100" height="100" fill="#21476F"/><rect x="100" y="300" width="100" height="100" fill="#183A5E"/><rect x="200" y="300" width="100" height="100" fill="#21476F"/><rect x="300" y="300" width="100" height="100" fill="#183A5E"/><rect x="400" y="300" width="100" height="100" fill="#21476F"/><rect x="500" y="300" width="100" height="100" fill="#183A5E"/><rect x="600" y="300" width="100" height="100" fill="#21476F"/><rect x="700" y="300" width="100" height="100" fill="#183A5E"/><rect x="800" y="300" width="100" height="100" fill="#21476F"/><rect x="900" y="300" width="100" height="100" fill="#183A5E"/><rect x="0" y="400" width="100" height="100" fill="#183A5E"/><rect x="100" y="400" width="100" height="100" fill="#21476F"/><rect x="200" y="400" width="100" height="100" fill="#183A5E"/><rect x="300" y="400" width="100" height="100" fill="#21476F"/><rect x="400" y="400" width="100" height="100" fill="#183A5E"/><rect x="500" y="400" width="100" height="100" fill="#21476F"/><rect x="600" y="400" width="100" height="100" fill="#183A5E"/><rect x="700" y="400" width="100" height="100" fill="#21476F"/><rect x="800" y="400" width="100" height="100" fill="#183A5E"/><rect x="900" y="400" width="100" height="100" fill="#21476F"/><rect x="0" y="500" width="100" height="100" fill="#21476F"/><rect x="100" y="500" width="100" height="100" fill="#183A5E"/><rect x="200" y="500" width="100" height="100" fill="#21476F"/><rect x="300" y="500" width="100" height="100" fill="#183A5E"/><rect x="400" y="500" width="100" height="100" fill="#21476F"/><rect x="500" y="500" width="100" height="100" fill="#183A5E"/><rect x="600" y="500" width="100" height="100" fill="#21476F"/><rect x="700" y="500" width="100" height="100" fill="#183A5E"/><rect x="800" y="500" width="100" height="100" fill="#21476F"/><rect x="900" y="500" width="100" height="100" fill="#183A5E"/><rect x="0" y="600" width="100" height="100" fill="#183A5E"/><rect x="100" y="600" width="100" height="100" fill="#21476F"/><rect x="200" y="600" width="100" height="100" fill="#183A5E"/><rect x="300" y="600" width="100" height="100" fill="#21476F"/><rect x="400" y="600" width="100" height="100" fill="#183A5E"/><rect x="500" y="600" width="100" height="100" fill="#21476F"/><rect x="600" y="600" width="100" height="100" fill="#183A5E"/><rect x="700" y="600" width="100" height="100" fill="#21476F"/><rect x="800" y="600" width="100" height="100" fill="#183A5E"/><rect x="900" y="600" width="100" height="100" fill="#21476F"/><rect x="0" y="700" width="100" height="100" fill="#21476F"/><rect x="100" y="700" width="100" height="100" fill="#183A5E"/><rect x="200" y="700" width="100" height="100" fill="#21476F"/><rect x="300" y="700" width="100" height="100" fill="#183A5E"/><rect x="400" y="700" width="100" height="100" fill="#21476F"/><rect x="500" y="700" width="100" height="100" fill="#183A5E"/><rect x="600" y="700" width="100" height="100" fill="#21476F"/><rect x="700" y="700" width="100" height="100" fill="#183A5E"/><rect x="800" y="700" width="100" height="100" fill="#21476F"/><rect x="900" y="700" width="100" height="100" fill="#183A5E"/><rect x="0" y="800" width="100" height="100" fill="#183A5E"/><rect x="100" y="800" width="100" height="100" fill="#21476F"/><rect x="200" y="800" width="100" height="100" fill="#183A5E"/><rect x="300" y="800" width="100" height="100" fill="#21476F"/><rect x="400" y="800" width="100" height="100" fill="#183A5E"/><rect x="500" y="800" width="100" height="100" fill="#21476F"/><rect x="600" y="800" width="100" height="100" fill="#183A5E"/><rect x="700" y="800" width="100" height="100" fill="#21476F"/><rect x="800" y="800" width="100" height="100" fill="#183A5E"/><rect x="900" y="800" width="100" height="100" fill="#21476F"/><rect x="0" y="900" width="100" height="100" fill="#21476F"/><rect x="100" y="900" width="100" height="100" fill="#183A5E"/><rect x="200" y="900" width="100" height="100" fill="#21476F"/><rect x="300" y="900" width="100" height="100" fill="#183A5E"/><rect x="400" y="900" width="100" height="100" fill="#21476F"/><rect x="500" y="900" width="100" height="100" fill="#183A5E"/><rect x="600" y="900" width="100" height="100" fill="#21476F"/><rect x="700" y="900" width="100" height="100" fill="#183A5E"/><rect x="800" y="900" width="100" height="100" fill="#21476F"/><rect x="900" y="900" width="100" height="100" fill="#183A5E"/>
    <rect width="1000" height="1000" fill="url(#glassGlow)"/>
    <g opacity="0.5" stroke="#8DE9D4" stroke-width="1.4"><line x1="0" y1="0" x2="0" y2="1000"/><line x1="100" y1="0" x2="100" y2="1000"/><line x1="200" y1="0" x2="200" y2="1000"/><line x1="300" y1="0" x2="300" y2="1000"/><line x1="400" y1="0" x2="400" y2="1000"/><line x1="500" y1="0" x2="500" y2="1000"/><line x1="600" y1="0" x2="600" y2="1000"/><line x1="700" y1="0" x2="700" y2="1000"/><line x1="800" y1="0" x2="800" y2="1000"/><line x1="900" y1="0" x2="900" y2="1000"/><line x1="1000" y1="0" x2="1000" y2="1000"/><line x1="0" y1="0" x2="1000" y2="0"/><line x1="0" y1="100" x2="1000" y2="100"/><line x1="0" y1="200" x2="1000" y2="200"/><line x1="0" y1="300" x2="1000" y2="300"/><line x1="0" y1="400" x2="1000" y2="400"/><line x1="0" y1="500" x2="1000" y2="500"/><line x1="0" y1="600" x2="1000" y2="600"/><line x1="0" y1="700" x2="1000" y2="700"/><line x1="0" y1="800" x2="1000" y2="800"/><line x1="0" y1="900" x2="1000" y2="900"/><line x1="0" y1="1000" x2="1000" y2="1000"/></g>
    
    <circle cx="278" cy="978" r="14" fill="#A158FF" fill-opacity="0.24"/>
    <circle cx="278" cy="978" r="9" fill="#DAB5FF" fill-opacity="0.45"/>
    <circle cx="278" cy="978" r="3" fill="#F3E6FF" fill-opacity="0.95"/>
    <circle cx="478" cy="978" r="14" fill="#A158FF" fill-opacity="0.24"/>
    <circle cx="478" cy="978" r="9" fill="#DAB5FF" fill-opacity="0.45"/>
    <circle cx="478" cy="978" r="3" fill="#F3E6FF" fill-opacity="0.95"/>
    <circle cx="678" cy="978" r="14" fill="#A158FF" fill-opacity="0.24"/>
    <circle cx="678" cy="978" r="9" fill="#DAB5FF" fill-opacity="0.45"/>
    <circle cx="678" cy="978" r="3" fill="#F3E6FF" fill-opacity="0.95"/>
    <circle cx="878" cy="978" r="14" fill="#A158FF" fill-opacity="0.24"/>
    <circle cx="878" cy="978" r="9" fill="#DAB5FF" fill-opacity="0.45"/>
    <circle cx="878" cy="978" r="3" fill="#F3E6FF" fill-opacity="0.95"/>
    <circle cx="878" cy="878" r="14" fill="#A158FF" fill-opacity="0.24"/>
    <circle cx="878" cy="878" r="9" fill="#DAB5FF" fill-opacity="0.45"/>
    <circle cx="878" cy="878" r="3" fill="#F3E6FF" fill-opacity="0.95"/>
    <circle cx="178" cy="878" r="14" fill="#A158FF" fill-opacity="0.24"/>
    <circle cx="178" cy="878" r="9" fill="#DAB5FF" fill-opacity="0.45"/>
    <circle cx="178" cy="878" r="3" fill="#F3E6FF" fill-opacity="0.95"/>
    <circle cx="378" cy="778" r="14" fill="#A158FF" fill-opacity="0.24"/>
    <circle cx="378" cy="778" r="9" fill="#DAB5FF" fill-opacity="0.45"/>
    <circle cx="378" cy="778" r="3" fill="#F3E6FF" fill-opacity="0.95"/>
    <circle cx="978" cy="778" r="14" fill="#A158FF" fill-opacity="0.24"/>
    <circle cx="978" cy="778" r="9" fill="#DAB5FF" fill-opacity="0.45"/>
    <circle cx="978" cy="778" r="3" fill="#F3E6FF" fill-opacity="0.95"/>
    <circle cx="678" cy="678" r="14" fill="#A158FF" fill-opacity="0.24"/>
    <circle cx="678" cy="678" r="9" fill="#DAB5FF" fill-opacity="0.45"/>
    <circle cx="678" cy="678" r="3" fill="#F3E6FF" fill-opacity="0.95"/>
    <circle cx="78" cy="678" r="14" fill="#A158FF" fill-opacity="0.24"/>
    <circle cx="78" cy="678" r="9" fill="#DAB5FF" fill-opacity="0.45"/>
    <circle cx="78" cy="678" r="3" fill="#F3E6FF" fill-opacity="0.95"/>
    <circle cx="378" cy="578" r="14" fill="#A158FF" fill-opacity="0.24"/>
    <circle cx="378" cy="578" r="9" fill="#DAB5FF" fill-opacity="0.45"/>
    <circle cx="378" cy="578" r="3" fill="#F3E6FF" fill-opacity="0.95"/>
    <circle cx="978" cy="578" r="14" fill="#A158FF" fill-opacity="0.24"/>
    <circle cx="978" cy="578" r="9" fill="#DAB5FF" fill-opacity="0.45"/>
    <circle cx="978" cy="578" r="3" fill="#F3E6FF" fill-opacity="0.95"/>
    <circle cx="778" cy="478" r="14" fill="#A158FF" fill-opacity="0.24"/>
    <circle cx="778" cy="478" r="9" fill="#DAB5FF" fill-opacity="0.45"/>
    <circle cx="778" cy="478" r="3" fill="#F3E6FF" fill-opacity="0.95"/>
    <circle cx="178" cy="478" r="14" fill="#A158FF" fill-opacity="0.24"/>
    <circle cx="178" cy="478" r="9" fill="#DAB5FF" fill-opacity="0.45"/>
    <circle cx="178" cy="478" r="3" fill="#F3E6FF" fill-opacity="0.95"/>
    <circle cx="678" cy="378" r="14" fill="#A158FF" fill-opacity="0.24"/>
    <circle cx="678" cy="378" r="9" fill="#DAB5FF" fill-opacity="0.45"/>
    <circle cx="678" cy="378" r="3" fill="#F3E6FF" fill-opacity="0.95"/>
    <circle cx="778" cy="278" r="14" fill="#A158FF" fill-opacity="0.24"/>
    <circle cx="778" cy="278" r="9" fill="#DAB5FF" fill-opacity="0.45"/>
    <circle cx="778" cy="278" r="3" fill="#F3E6FF" fill-opacity="0.95"/>
    <circle cx="478" cy="278" r="14" fill="#A158FF" fill-opacity="0.24"/>
    <circle cx="478" cy="278" r="9" fill="#DAB5FF" fill-opacity="0.45"/>
    <circle cx="478" cy="278" r="3" fill="#F3E6FF" fill-opacity="0.95"/>
    <circle cx="78" cy="178" r="14" fill="#A158FF" fill-opacity="0.24"/>
    <circle cx="78" cy="178" r="9" fill="#DAB5FF" fill-opacity="0.45"/>
    <circle cx="78" cy="178" r="3" fill="#F3E6FF" fill-opacity="0.95"/>
    <circle cx="378" cy="178" r="14" fill="#A158FF" fill-opacity="0.24"/>
    <circle cx="378" cy="178" r="9" fill="#DAB5FF" fill-opacity="0.45"/>
    <circle cx="378" cy="178" r="3" fill="#F3E6FF" fill-opacity="0.95"/>
    <circle cx="878" cy="178" r="14" fill="#A158FF" fill-opacity="0.24"/>
    <circle cx="878" cy="178" r="9" fill="#DAB5FF" fill-opacity="0.45"/>
    <circle cx="878" cy="178" r="3" fill="#F3E6FF" fill-opacity="0.95"/>
    <circle cx="778" cy="78" r="14" fill="#A158FF" fill-opacity="0.24"/>
    <circle cx="778" cy="78" r="9" fill="#DAB5FF" fill-opacity="0.45"/>
    <circle cx="778" cy="78" r="3" fill="#F3E6FF" fill-opacity="0.95"/>
    <circle cx="478" cy="78" r="14" fill="#A158FF" fill-opacity="0.24"/>
    <circle cx="478" cy="78" r="9" fill="#DAB5FF" fill-opacity="0.45"/>
    <circle cx="478" cy="78" r="3" fill="#F3E6FF" fill-opacity="0.95"/>
    <circle cx="178" cy="78" r="14" fill="#A158FF" fill-opacity="0.24"/>
    <circle cx="178" cy="78" r="9" fill="#DAB5FF" fill-opacity="0.45"/>
    <circle cx="178" cy="78" r="3" fill="#F3E6FF" fill-opacity="0.95"/>
    
  <g id="snake-1" filter="url(#softShadow)">
    <path d="M 450 850 Q 451.92 881.41 483.33 883.33 Q 514.75 885.25 516.67 916.67 Q 518.59 948.08 550.00 950.00" stroke="#4A0E1B" stroke-width="18" fill="none" stroke-linecap="round" stroke-linejoin="round" opacity="0.92"/>
    <path d="M 450 850 Q 451.92 881.41 483.33 883.33 Q 514.75 885.25 516.67 916.67 Q 518.59 948.08 550.00 950.00" stroke="#D95067" stroke-width="12.5" fill="none" stroke-linecap="round" stroke-linejoin="round"/>
    <path d="M 450 850 Q 451.92 881.41 483.33 883.33 Q 514.75 885.25 516.67 916.67 Q 518.59 948.08 550.00 950.00" stroke="#F2A3AF" stroke-width="3.3" fill="none" stroke-linecap="round" stroke-linejoin="round" opacity="0.76"/>
    <ellipse cx="450" cy="850" rx="17" ry="13" fill="#D95067"/>
    <ellipse cx="447.5" cy="852.5" rx="10.5" ry="7.5" fill="#F4B8C1" opacity="0.6"/>
    <circle cx="444.5" cy="846.8" r="2" fill="#25080F"/>
    <circle cx="455.5" cy="846.8" r="2" fill="#25080F"/>
  </g>

  <g id="snake-2" filter="url(#softShadow)">
    <path d="M 850 550 Q 843.93 594.70 883.33 616.67 Q 922.74 638.63 916.67 683.33 Q 910.59 728.04 950.00 750.00" stroke="#4A0E1B" stroke-width="18" fill="none" stroke-linecap="round" stroke-linejoin="round" opacity="0.92"/>
    <path d="M 850 550 Q 843.93 594.70 883.33 616.67 Q 922.74 638.63 916.67 683.33 Q 910.59 728.04 950.00 750.00" stroke="#D95067" stroke-width="12.5" fill="none" stroke-linecap="round" stroke-linejoin="round"/>
    <path d="M 850 550 Q 843.93 594.70 883.33 616.67 Q 922.74 638.63 916.67 683.33 Q 910.59 728.04 950.00 750.00" stroke="#F2A3AF" stroke-width="3.3" fill="none" stroke-linecap="round" stroke-linejoin="round" opacity="0.76"/>
    <ellipse cx="850" cy="550" rx="17" ry="13" fill="#D95067"/>
    <ellipse cx="847.5" cy="552.5" rx="10.5" ry="7.5" fill="#F4B8C1" opacity="0.6"/>
    <circle cx="844.5" cy="546.8" r="2" fill="#25080F"/>
    <circle cx="855.5" cy="546.8" r="2" fill="#25080F"/>
  </g>

  <g id="snake-3" filter="url(#softShadow)">
    <path d="M 450 450 Q 500.00 479.67 550.00 450.00 Q 600.00 420.33 650.00 450.00 Q 700.00 479.67 750.00 450.00" stroke="#4A0E1B" stroke-width="18" fill="none" stroke-linecap="round" stroke-linejoin="round" opacity="0.92"/>
    <path d="M 450 450 Q 500.00 479.67 550.00 450.00 Q 600.00 420.33 650.00 450.00 Q 700.00 479.67 750.00 450.00" stroke="#D95067" stroke-width="12.5" fill="none" stroke-linecap="round" stroke-linejoin="round"/>
    <path d="M 450 450 Q 500.00 479.67 550.00 450.00 Q 600.00 420.33 650.00 450.00 Q 700.00 479.67 750.00 450.00" stroke="#F2A3AF" stroke-width="3.3" fill="none" stroke-linecap="round" stroke-linejoin="round" opacity="0.76"/>
    <ellipse cx="450" cy="450" rx="17" ry="13" fill="#D95067"/>
    <ellipse cx="447.5" cy="452.5" rx="10.5" ry="7.5" fill="#F4B8C1" opacity="0.6"/>
    <circle cx="444.5" cy="446.8" r="2" fill="#25080F"/>
    <circle cx="455.5" cy="446.8" r="2" fill="#25080F"/>
  </g>

  <g id="snake-4" filter="url(#softShadow)">
    <path d="M 350 350 Q 290.33 337.67 250.00 383.33 Q 209.67 429.00 150.00 416.67 Q 90.33 404.33 50.00 450.00" stroke="#4A0E1B" stroke-width="18" fill="none" stroke-linecap="round" stroke-linejoin="round" opacity="0.92"/>
    <path d="M 350 350 Q 290.33 337.67 250.00 383.33 Q 209.67 429.00 150.00 416.67 Q 90.33 404.33 50.00 450.00" stroke="#D95067" stroke-width="12.5" fill="none" stroke-linecap="round" stroke-linejoin="round"/>
    <path d="M 350 350 Q 290.33 337.67 250.00 383.33 Q 209.67 429.00 150.00 416.67 Q 90.33 404.33 50.00 450.00" stroke="#F2A3AF" stroke-width="3.3" fill="none" stroke-linecap="round" stroke-linejoin="round" opacity="0.76"/>
    <ellipse cx="350" cy="350" rx="17" ry="13" fill="#D95067"/>
    <ellipse cx="347.5" cy="352.5" rx="10.5" ry="7.5" fill="#F4B8C1" opacity="0.6"/>
    <circle cx="344.5" cy="346.8" r="2" fill="#25080F"/>
    <circle cx="355.5" cy="346.8" r="2" fill="#25080F"/>
  </g>

  <g id="snake-5" filter="url(#softShadow)">
    <path d="M 650 150 Q 598.16 177.65 607.14 235.71 Q 616.12 293.78 564.29 321.43 Q 512.45 349.08 521.43 407.14 Q 530.41 465.21 478.57 492.86 Q 426.73 520.51 435.71 578.57 Q 444.70 636.63 392.86 664.29 Q 341.02 691.94 350.00 750.00" stroke="#4A0E1B" stroke-width="18" fill="none" stroke-linecap="round" stroke-linejoin="round" opacity="0.92"/>
    <path d="M 650 150 Q 598.16 177.65 607.14 235.71 Q 616.12 293.78 564.29 321.43 Q 512.45 349.08 521.43 407.14 Q 530.41 465.21 478.57 492.86 Q 426.73 520.51 435.71 578.57 Q 444.70 636.63 392.86 664.29 Q 341.02 691.94 350.00 750.00" stroke="#D95067" stroke-width="12.5" fill="none" stroke-linecap="round" stroke-linejoin="round"/>
    <path d="M 650 150 Q 598.16 177.65 607.14 235.71 Q 616.12 293.78 564.29 321.43 Q 512.45 349.08 521.43 407.14 Q 530.41 465.21 478.57 492.86 Q 426.73 520.51 435.71 578.57 Q 444.70 636.63 392.86 664.29 Q 341.02 691.94 350.00 750.00" stroke="#F2A3AF" stroke-width="3.3" fill="none" stroke-linecap="round" stroke-linejoin="round" opacity="0.76"/>
    <ellipse cx="650" cy="150" rx="17" ry="13" fill="#D95067"/>
    <ellipse cx="647.5" cy="152.5" rx="10.5" ry="7.5" fill="#F4B8C1" opacity="0.6"/>
    <circle cx="644.5" cy="146.8" r="2" fill="#25080F"/>
    <circle cx="655.5" cy="146.8" r="2" fill="#25080F"/>
  </g>

  <g id="snake-6" filter="url(#softShadow)">
    <path d="M 550 50 Q 525.89 83.33 550.00 116.67 Q 574.11 150.00 550.00 183.33 Q 525.89 216.67 550.00 250.00" stroke="#4A0E1B" stroke-width="18" fill="none" stroke-linecap="round" stroke-linejoin="round" opacity="0.92"/>
    <path d="M 550 50 Q 525.89 83.33 550.00 116.67 Q 574.11 150.00 550.00 183.33 Q 525.89 216.67 550.00 250.00" stroke="#D95067" stroke-width="12.5" fill="none" stroke-linecap="round" stroke-linejoin="round"/>
    <path d="M 550 50 Q 525.89 83.33 550.00 116.67 Q 574.11 150.00 550.00 183.33 Q 525.89 216.67 550.00 250.00" stroke="#F2A3AF" stroke-width="3.3" fill="none" stroke-linecap="round" stroke-linejoin="round" opacity="0.76"/>
    <ellipse cx="550" cy="50" rx="17" ry="13" fill="#D95067"/>
    <ellipse cx="547.5" cy="52.5" rx="10.5" ry="7.5" fill="#F4B8C1" opacity="0.6"/>
    <circle cx="544.5" cy="46.8" r="2" fill="#25080F"/>
    <circle cx="555.5" cy="46.8" r="2" fill="#25080F"/>
  </g>

  <g id="snake-7" filter="url(#softShadow)">
    <path d="M 250 50 Q 295.19 90.80 350.00 64.29 Q 404.81 37.77 450.00 78.57 Q 495.19 119.37 550.00 92.86 Q 604.81 66.34 650.00 107.14 Q 695.19 147.94 750.00 121.43 Q 804.81 94.91 850.00 135.71 Q 895.19 176.52 950.00 150.00" stroke="#4A0E1B" stroke-width="18" fill="none" stroke-linecap="round" stroke-linejoin="round" opacity="0.92"/>
    <path d="M 250 50 Q 295.19 90.80 350.00 64.29 Q 404.81 37.77 450.00 78.57 Q 495.19 119.37 550.00 92.86 Q 604.81 66.34 650.00 107.14 Q 695.19 147.94 750.00 121.43 Q 804.81 94.91 850.00 135.71 Q 895.19 176.52 950.00 150.00" stroke="#D95067" stroke-width="12.5" fill="none" stroke-linecap="round" stroke-linejoin="round"/>
    <path d="M 250 50 Q 295.19 90.80 350.00 64.29 Q 404.81 37.77 450.00 78.57 Q 495.19 119.37 550.00 92.86 Q 604.81 66.34 650.00 107.14 Q 695.19 147.94 750.00 121.43 Q 804.81 94.91 850.00 135.71 Q 895.19 176.52 950.00 150.00" stroke="#F2A3AF" stroke-width="3.3" fill="none" stroke-linecap="round" stroke-linejoin="round" opacity="0.76"/>
    <ellipse cx="250" cy="50" rx="17" ry="13" fill="#D95067"/>
    <ellipse cx="247.5" cy="52.5" rx="10.5" ry="7.5" fill="#F4B8C1" opacity="0.6"/>
    <circle cx="244.5" cy="46.8" r="2" fill="#25080F"/>
    <circle cx="255.5" cy="46.8" r="2" fill="#25080F"/>
  </g>
    
  <g id="ladder-1" filter="url(#softShadow)">
    <line x1="761.65" y1="957.77" x2="961.65" y2="657.77" stroke="#6E4517" stroke-width="10" stroke-linecap="round"/>
    <line x1="738.35" y1="942.23" x2="938.35" y2="642.23" stroke="#6E4517" stroke-width="10" stroke-linecap="round"/>
    <line x1="761.65" y1="957.77" x2="961.65" y2="657.77" stroke="#E7CAA1" stroke-width="6.4" stroke-linecap="round"/>
    <line x1="738.35" y1="942.23" x2="938.35" y2="642.23" stroke="#E7CAA1" stroke-width="6.4" stroke-linecap="round"/>
    <line x1="794.15" y1="907.21" x2="772.52" y2="892.79" stroke="#DCC089" stroke-width="5" stroke-linecap="round" opacity="0.95"/><line x1="794.15" y1="907.21" x2="772.52" y2="892.79" stroke="#6A4317" stroke-width="1.2" stroke-linecap="round" opacity="0.55"/><line x1="827.48" y1="857.21" x2="805.85" y2="842.79" stroke="#DCC089" stroke-width="5" stroke-linecap="round" opacity="0.95"/><line x1="827.48" y1="857.21" x2="805.85" y2="842.79" stroke="#6A4317" stroke-width="1.2" stroke-linecap="round" opacity="0.55"/><line x1="860.82" y1="807.21" x2="839.18" y2="792.79" stroke="#DCC089" stroke-width="5" stroke-linecap="round" opacity="0.95"/><line x1="860.82" y1="807.21" x2="839.18" y2="792.79" stroke="#6A4317" stroke-width="1.2" stroke-linecap="round" opacity="0.55"/><line x1="894.15" y1="757.21" x2="872.52" y2="742.79" stroke="#DCC089" stroke-width="5" stroke-linecap="round" opacity="0.95"/><line x1="894.15" y1="757.21" x2="872.52" y2="742.79" stroke="#6A4317" stroke-width="1.2" stroke-linecap="round" opacity="0.55"/><line x1="927.48" y1="707.21" x2="905.85" y2="692.79" stroke="#DCC089" stroke-width="5" stroke-linecap="round" opacity="0.95"/><line x1="927.48" y1="707.21" x2="905.85" y2="692.79" stroke="#6A4317" stroke-width="1.2" stroke-linecap="round" opacity="0.55"/>
  </g>

  <g id="ladder-2" filter="url(#softShadow)">
    <line x1="955.51" y1="937.13" x2="255.51" y2="637.13" stroke="#6E4517" stroke-width="10" stroke-linecap="round"/>
    <line x1="944.49" y1="962.87" x2="244.49" y2="662.87" stroke="#6E4517" stroke-width="10" stroke-linecap="round"/>
    <line x1="955.51" y1="937.13" x2="255.51" y2="637.13" stroke="#E7CAA1" stroke-width="6.4" stroke-linecap="round"/>
    <line x1="944.49" y1="962.87" x2="244.49" y2="662.87" stroke="#E7CAA1" stroke-width="6.4" stroke-linecap="round"/>
    <line x1="901.27" y1="914.97" x2="891.03" y2="938.87" stroke="#DCC089" stroke-width="5" stroke-linecap="round" opacity="0.95"/><line x1="901.27" y1="914.97" x2="891.03" y2="938.87" stroke="#6A4317" stroke-width="1.2" stroke-linecap="round" opacity="0.55"/><line x1="847.43" y1="891.90" x2="837.19" y2="915.80" stroke="#DCC089" stroke-width="5" stroke-linecap="round" opacity="0.95"/><line x1="847.43" y1="891.90" x2="837.19" y2="915.80" stroke="#6A4317" stroke-width="1.2" stroke-linecap="round" opacity="0.55"/><line x1="793.58" y1="868.82" x2="783.34" y2="892.72" stroke="#DCC089" stroke-width="5" stroke-linecap="round" opacity="0.95"/><line x1="793.58" y1="868.82" x2="783.34" y2="892.72" stroke="#6A4317" stroke-width="1.2" stroke-linecap="round" opacity="0.55"/><line x1="739.74" y1="845.74" x2="729.49" y2="869.64" stroke="#DCC089" stroke-width="5" stroke-linecap="round" opacity="0.95"/><line x1="739.74" y1="845.74" x2="729.49" y2="869.64" stroke="#6A4317" stroke-width="1.2" stroke-linecap="round" opacity="0.55"/><line x1="685.89" y1="822.67" x2="675.65" y2="846.56" stroke="#DCC089" stroke-width="5" stroke-linecap="round" opacity="0.95"/><line x1="685.89" y1="822.67" x2="675.65" y2="846.56" stroke="#6A4317" stroke-width="1.2" stroke-linecap="round" opacity="0.55"/><line x1="632.04" y1="799.59" x2="621.80" y2="823.49" stroke="#DCC089" stroke-width="5" stroke-linecap="round" opacity="0.95"/><line x1="632.04" y1="799.59" x2="621.80" y2="823.49" stroke="#6A4317" stroke-width="1.2" stroke-linecap="round" opacity="0.55"/><line x1="578.20" y1="776.51" x2="567.96" y2="800.41" stroke="#DCC089" stroke-width="5" stroke-linecap="round" opacity="0.95"/><line x1="578.20" y1="776.51" x2="567.96" y2="800.41" stroke="#6A4317" stroke-width="1.2" stroke-linecap="round" opacity="0.55"/><line x1="524.35" y1="753.44" x2="514.11" y2="777.33" stroke="#DCC089" stroke-width="5" stroke-linecap="round" opacity="0.95"/><line x1="524.35" y1="753.44" x2="514.11" y2="777.33" stroke="#6A4317" stroke-width="1.2" stroke-linecap="round" opacity="0.55"/><line x1="470.51" y1="730.36" x2="460.26" y2="754.26" stroke="#DCC089" stroke-width="5" stroke-linecap="round" opacity="0.95"/><line x1="470.51" y1="730.36" x2="460.26" y2="754.26" stroke="#6A4317" stroke-width="1.2" stroke-linecap="round" opacity="0.55"/><line x1="416.66" y1="707.28" x2="406.42" y2="731.18" stroke="#DCC089" stroke-width="5" stroke-linecap="round" opacity="0.95"/><line x1="416.66" y1="707.28" x2="406.42" y2="731.18" stroke="#6A4317" stroke-width="1.2" stroke-linecap="round" opacity="0.55"/><line x1="362.81" y1="684.20" x2="352.57" y2="708.10" stroke="#DCC089" stroke-width="5" stroke-linecap="round" opacity="0.95"/><line x1="362.81" y1="684.20" x2="352.57" y2="708.10" stroke="#6A4317" stroke-width="1.2" stroke-linecap="round" opacity="0.55"/><line x1="308.97" y1="661.13" x2="298.73" y2="685.03" stroke="#DCC089" stroke-width="5" stroke-linecap="round" opacity="0.95"/><line x1="308.97" y1="661.13" x2="298.73" y2="685.03" stroke="#6A4317" stroke-width="1.2" stroke-linecap="round" opacity="0.55"/>
  </g>

  <g id="ladder-3" filter="url(#softShadow)">
    <line x1="564.00" y1="850.00" x2="564.00" y2="750.00" stroke="#6E4517" stroke-width="10" stroke-linecap="round"/>
    <line x1="536.00" y1="850.00" x2="536.00" y2="750.00" stroke="#6E4517" stroke-width="10" stroke-linecap="round"/>
    <line x1="564.00" y1="850.00" x2="564.00" y2="750.00" stroke="#E7CAA1" stroke-width="6.4" stroke-linecap="round"/>
    <line x1="536.00" y1="850.00" x2="536.00" y2="750.00" stroke="#E7CAA1" stroke-width="6.4" stroke-linecap="round"/>
    <line x1="563.00" y1="816.67" x2="537.00" y2="816.67" stroke="#DCC089" stroke-width="5" stroke-linecap="round" opacity="0.95"/><line x1="563.00" y1="816.67" x2="537.00" y2="816.67" stroke="#6A4317" stroke-width="1.2" stroke-linecap="round" opacity="0.55"/><line x1="563.00" y1="783.33" x2="537.00" y2="783.33" stroke="#DCC089" stroke-width="5" stroke-linecap="round" opacity="0.95"/><line x1="563.00" y1="783.33" x2="537.00" y2="783.33" stroke="#6A4317" stroke-width="1.2" stroke-linecap="round" opacity="0.55"/>
  </g>

  <g id="ladder-4" filter="url(#softShadow)">
    <line x1="62.52" y1="756.26" x2="162.52" y2="556.26" stroke="#6E4517" stroke-width="10" stroke-linecap="round"/>
    <line x1="37.48" y1="743.74" x2="137.48" y2="543.74" stroke="#6E4517" stroke-width="10" stroke-linecap="round"/>
    <line x1="62.52" y1="756.26" x2="162.52" y2="556.26" stroke="#E7CAA1" stroke-width="6.4" stroke-linecap="round"/>
    <line x1="37.48" y1="743.74" x2="137.48" y2="543.74" stroke="#E7CAA1" stroke-width="6.4" stroke-linecap="round"/>
    <line x1="86.63" y1="705.81" x2="63.37" y2="694.19" stroke="#DCC089" stroke-width="5" stroke-linecap="round" opacity="0.95"/><line x1="86.63" y1="705.81" x2="63.37" y2="694.19" stroke="#6A4317" stroke-width="1.2" stroke-linecap="round" opacity="0.55"/><line x1="111.63" y1="655.81" x2="88.37" y2="644.19" stroke="#DCC089" stroke-width="5" stroke-linecap="round" opacity="0.95"/><line x1="111.63" y1="655.81" x2="88.37" y2="644.19" stroke="#6A4317" stroke-width="1.2" stroke-linecap="round" opacity="0.55"/><line x1="136.63" y1="605.81" x2="113.37" y2="594.19" stroke="#DCC089" stroke-width="5" stroke-linecap="round" opacity="0.95"/><line x1="136.63" y1="605.81" x2="113.37" y2="594.19" stroke="#6A4317" stroke-width="1.2" stroke-linecap="round" opacity="0.55"/>
  </g>

  <g id="ladder-5" filter="url(#softShadow)">
    <line x1="761.65" y1="742.23" x2="361.65" y2="142.23" stroke="#6E4517" stroke-width="10" stroke-linecap="round"/>
    <line x1="738.35" y1="757.77" x2="338.35" y2="157.77" stroke="#6E4517" stroke-width="10" stroke-linecap="round"/>
    <line x1="761.65" y1="742.23" x2="361.65" y2="142.23" stroke="#E7CAA1" stroke-width="6.4" stroke-linecap="round"/>
    <line x1="738.35" y1="757.77" x2="338.35" y2="157.77" stroke="#E7CAA1" stroke-width="6.4" stroke-linecap="round"/>
    <line x1="730.05" y1="696.64" x2="708.41" y2="711.06" stroke="#DCC089" stroke-width="5" stroke-linecap="round" opacity="0.95"/><line x1="730.05" y1="696.64" x2="708.41" y2="711.06" stroke="#6A4317" stroke-width="1.2" stroke-linecap="round" opacity="0.55"/><line x1="699.28" y1="650.48" x2="677.64" y2="664.90" stroke="#DCC089" stroke-width="5" stroke-linecap="round" opacity="0.95"/><line x1="699.28" y1="650.48" x2="677.64" y2="664.90" stroke="#6A4317" stroke-width="1.2" stroke-linecap="round" opacity="0.55"/><line x1="668.51" y1="604.33" x2="646.88" y2="618.75" stroke="#DCC089" stroke-width="5" stroke-linecap="round" opacity="0.95"/><line x1="668.51" y1="604.33" x2="646.88" y2="618.75" stroke="#6A4317" stroke-width="1.2" stroke-linecap="round" opacity="0.55"/><line x1="637.74" y1="558.17" x2="616.11" y2="572.60" stroke="#DCC089" stroke-width="5" stroke-linecap="round" opacity="0.95"/><line x1="637.74" y1="558.17" x2="616.11" y2="572.60" stroke="#6A4317" stroke-width="1.2" stroke-linecap="round" opacity="0.55"/><line x1="606.97" y1="512.02" x2="585.34" y2="526.44" stroke="#DCC089" stroke-width="5" stroke-linecap="round" opacity="0.95"/><line x1="606.97" y1="512.02" x2="585.34" y2="526.44" stroke="#6A4317" stroke-width="1.2" stroke-linecap="round" opacity="0.55"/><line x1="576.20" y1="465.87" x2="554.57" y2="480.29" stroke="#DCC089" stroke-width="5" stroke-linecap="round" opacity="0.95"/><line x1="576.20" y1="465.87" x2="554.57" y2="480.29" stroke="#6A4317" stroke-width="1.2" stroke-linecap="round" opacity="0.55"/><line x1="545.43" y1="419.71" x2="523.80" y2="434.13" stroke="#DCC089" stroke-width="5" stroke-linecap="round" opacity="0.95"/><line x1="545.43" y1="419.71" x2="523.80" y2="434.13" stroke="#6A4317" stroke-width="1.2" stroke-linecap="round" opacity="0.55"/><line x1="514.66" y1="373.56" x2="493.03" y2="387.98" stroke="#DCC089" stroke-width="5" stroke-linecap="round" opacity="0.95"/><line x1="514.66" y1="373.56" x2="493.03" y2="387.98" stroke="#6A4317" stroke-width="1.2" stroke-linecap="round" opacity="0.55"/><line x1="483.89" y1="327.40" x2="462.26" y2="341.83" stroke="#DCC089" stroke-width="5" stroke-linecap="round" opacity="0.95"/><line x1="483.89" y1="327.40" x2="462.26" y2="341.83" stroke="#6A4317" stroke-width="1.2" stroke-linecap="round" opacity="0.55"/><line x1="453.12" y1="281.25" x2="431.49" y2="295.67" stroke="#DCC089" stroke-width="5" stroke-linecap="round" opacity="0.95"/><line x1="453.12" y1="281.25" x2="431.49" y2="295.67" stroke="#6A4317" stroke-width="1.2" stroke-linecap="round" opacity="0.55"/><line x1="422.36" y1="235.10" x2="400.72" y2="249.52" stroke="#DCC089" stroke-width="5" stroke-linecap="round" opacity="0.95"/><line x1="422.36" y1="235.10" x2="400.72" y2="249.52" stroke="#6A4317" stroke-width="1.2" stroke-linecap="round" opacity="0.55"/><line x1="391.59" y1="188.94" x2="369.95" y2="203.36" stroke="#DCC089" stroke-width="5" stroke-linecap="round" opacity="0.95"/><line x1="391.59" y1="188.94" x2="369.95" y2="203.36" stroke="#6A4317" stroke-width="1.2" stroke-linecap="round" opacity="0.55"/>
  </g>

  <g id="ladder-6" filter="url(#softShadow)">
    <line x1="459.90" y1="640.10" x2="359.90" y2="540.10" stroke="#6E4517" stroke-width="10" stroke-linecap="round"/>
    <line x1="440.10" y1="659.90" x2="340.10" y2="559.90" stroke="#6E4517" stroke-width="10" stroke-linecap="round"/>
    <line x1="459.90" y1="640.10" x2="359.90" y2="540.10" stroke="#E7CAA1" stroke-width="6.4" stroke-linecap="round"/>
    <line x1="440.10" y1="659.90" x2="340.10" y2="559.90" stroke="#E7CAA1" stroke-width="6.4" stroke-linecap="round"/>
    <line x1="425.86" y1="607.47" x2="407.47" y2="625.86" stroke="#DCC089" stroke-width="5" stroke-linecap="round" opacity="0.95"/><line x1="425.86" y1="607.47" x2="407.47" y2="625.86" stroke="#6A4317" stroke-width="1.2" stroke-linecap="round" opacity="0.55"/><line x1="392.53" y1="574.14" x2="374.14" y2="592.53" stroke="#DCC089" stroke-width="5" stroke-linecap="round" opacity="0.95"/><line x1="392.53" y1="574.14" x2="374.14" y2="592.53" stroke="#6A4317" stroke-width="1.2" stroke-linecap="round" opacity="0.55"/>
  </g>

  <g id="ladder-7" filter="url(#softShadow)">
    <line x1="954.43" y1="436.72" x2="654.43" y2="336.72" stroke="#6E4517" stroke-width="10" stroke-linecap="round"/>
    <line x1="945.57" y1="463.28" x2="645.57" y2="363.28" stroke="#6E4517" stroke-width="10" stroke-linecap="round"/>
    <line x1="954.43" y1="436.72" x2="654.43" y2="336.72" stroke="#E7CAA1" stroke-width="6.4" stroke-linecap="round"/>
    <line x1="945.57" y1="463.28" x2="645.57" y2="363.28" stroke="#E7CAA1" stroke-width="6.4" stroke-linecap="round"/>
    <line x1="894.11" y1="417.67" x2="885.89" y2="442.33" stroke="#DCC089" stroke-width="5" stroke-linecap="round" opacity="0.95"/><line x1="894.11" y1="417.67" x2="885.89" y2="442.33" stroke="#6A4317" stroke-width="1.2" stroke-linecap="round" opacity="0.55"/><line x1="834.11" y1="397.67" x2="825.89" y2="422.33" stroke="#DCC089" stroke-width="5" stroke-linecap="round" opacity="0.95"/><line x1="834.11" y1="397.67" x2="825.89" y2="422.33" stroke="#6A4317" stroke-width="1.2" stroke-linecap="round" opacity="0.55"/><line x1="774.11" y1="377.67" x2="765.89" y2="402.33" stroke="#DCC089" stroke-width="5" stroke-linecap="round" opacity="0.95"/><line x1="774.11" y1="377.67" x2="765.89" y2="402.33" stroke="#6A4317" stroke-width="1.2" stroke-linecap="round" opacity="0.55"/><line x1="714.11" y1="357.67" x2="705.89" y2="382.33" stroke="#DCC089" stroke-width="5" stroke-linecap="round" opacity="0.95"/><line x1="714.11" y1="357.67" x2="705.89" y2="382.33" stroke="#6A4317" stroke-width="1.2" stroke-linecap="round" opacity="0.55"/>
  </g>

  <g id="ladder-8" filter="url(#softShadow)">
    <line x1="964.00" y1="250.00" x2="964.00" y2="50.00" stroke="#6E4517" stroke-width="10" stroke-linecap="round"/>
    <line x1="936.00" y1="250.00" x2="936.00" y2="50.00" stroke="#6E4517" stroke-width="10" stroke-linecap="round"/>
    <line x1="964.00" y1="250.00" x2="964.00" y2="50.00" stroke="#E7CAA1" stroke-width="6.4" stroke-linecap="round"/>
    <line x1="936.00" y1="250.00" x2="936.00" y2="50.00" stroke="#E7CAA1" stroke-width="6.4" stroke-linecap="round"/>
    <line x1="963.00" y1="183.33" x2="937.00" y2="183.33" stroke="#DCC089" stroke-width="5" stroke-linecap="round" opacity="0.95"/><line x1="963.00" y1="183.33" x2="937.00" y2="183.33" stroke="#6A4317" stroke-width="1.2" stroke-linecap="round" opacity="0.55"/><line x1="963.00" y1="116.67" x2="937.00" y2="116.67" stroke="#DCC089" stroke-width="5" stroke-linecap="round" opacity="0.95"/><line x1="963.00" y1="116.67" x2="937.00" y2="116.67" stroke="#6A4317" stroke-width="1.2" stroke-linecap="round" opacity="0.55"/>
  </g>

  <g id="ladder-9" filter="url(#softShadow)">
    <line x1="64.00" y1="250.00" x2="64.00" y2="50.00" stroke="#6E4517" stroke-width="10" stroke-linecap="round"/>
    <line x1="36.00" y1="250.00" x2="36.00" y2="50.00" stroke="#6E4517" stroke-width="10" stroke-linecap="round"/>
    <line x1="64.00" y1="250.00" x2="64.00" y2="50.00" stroke="#E7CAA1" stroke-width="6.4" stroke-linecap="round"/>
    <line x1="36.00" y1="250.00" x2="36.00" y2="50.00" stroke="#E7CAA1" stroke-width="6.4" stroke-linecap="round"/>
    <line x1="63.00" y1="183.33" x2="37.00" y2="183.33" stroke="#DCC089" stroke-width="5" stroke-linecap="round" opacity="0.95"/><line x1="63.00" y1="183.33" x2="37.00" y2="183.33" stroke="#6A4317" stroke-width="1.2" stroke-linecap="round" opacity="0.55"/><line x1="63.00" y1="116.67" x2="37.00" y2="116.67" stroke="#DCC089" stroke-width="5" stroke-linecap="round" opacity="0.95"/><line x1="63.00" y1="116.67" x2="37.00" y2="116.67" stroke="#6A4317" stroke-width="1.2" stroke-linecap="round" opacity="0.55"/>
  </g>
    <text x="10" y="919" fill="#B3F9E6" font-size="16" font-family="Trebuchet MS, Verdana, sans-serif" opacity="0.95">1</text><text x="110" y="919" fill="#B3F9E6" font-size="16" font-family="Trebuchet MS, Verdana, sans-serif" opacity="0.95">2</text><text x="210" y="919" fill="#B3F9E6" font-size="16" font-family="Trebuchet MS, Verdana, sans-serif" opacity="0.95">3</text><text x="310" y="919" fill="#B3F9E6" font-size="16" font-family="Trebuchet MS, Verdana, sans-serif" opacity="0.95">4</text><text x="410" y="919" fill="#B3F9E6" font-size="16" font-family="Trebuchet MS, Verdana, sans-serif" opacity="0.95">5</text><text x="510" y="919" fill="#B3F9E6" font-size="16" font-family="Trebuchet MS, Verdana, sans-serif" opacity="0.95">6</text><text x="610" y="919" fill="#B3F9E6" font-size="16" font-family="Trebuchet MS, Verdana, sans-serif" opacity="0.95">7</text><text x="710" y="919" fill="#B3F9E6" font-size="16" font-family="Trebuchet MS, Verdana, sans-serif" opacity="0.95">8</text><text x="810" y="919" fill="#B3F9E6" font-size="16" font-family="Trebuchet MS, Verdana, sans-serif" opacity="0.95">9</text><text x="910" y="919" fill="#B3F9E6" font-size="16" font-family="Trebuchet MS, Verdana, sans-serif" opacity="0.95">10</text><text x="910" y="819" fill="#B3F9E6" font-size="16" font-family="Trebuchet MS, Verdana, sans-serif" opacity="0.95">11</text><text x="810" y="819" fill="#B3F9E6" font-size="16" font-family="Trebuchet MS, Verdana, sans-serif" opacity="0.95">12</text><text x="710" y="819" fill="#B3F9E6" font-size="16" font-family="Trebuchet MS, Verdana, sans-serif" opacity="0.95">13</text><text x="610" y="819" fill="#B3F9E6" font-size="16" font-family="Trebuchet MS, Verdana, sans-serif" opacity="0.95">14</text><text x="510" y="819" fill="#B3F9E6" font-size="16" font-family="Trebuchet MS, Verdana, sans-serif" opacity="0.95">15</text><text x="410" y="819" fill="#B3F9E6" font-size="16" font-family="Trebuchet MS, Verdana, sans-serif" opacity="0.95">16</text><text x="310" y="819" fill="#B3F9E6" font-size="16" font-family="Trebuchet MS, Verdana, sans-serif" opacity="0.95">17</text><text x="210" y="819" fill="#B3F9E6" font-size="16" font-family="Trebuchet MS, Verdana, sans-serif" opacity="0.95">18</text><text x="110" y="819" fill="#B3F9E6" font-size="16" font-family="Trebuchet MS, Verdana, sans-serif" opacity="0.95">19</text><text x="10" y="819" fill="#B3F9E6" font-size="16" font-family="Trebuchet MS, Verdana, sans-serif" opacity="0.95">20</text><text x="10" y="719" fill="#B3F9E6" font-size="16" font-family="Trebuchet MS, Verdana, sans-serif" opacity="0.95">21</text><text x="110" y="719" fill="#B3F9E6" font-size="16" font-family="Trebuchet MS, Verdana, sans-serif" opacity="0.95">22</text><text x="210" y="719" fill="#B3F9E6" font-size="16" font-family="Trebuchet MS, Verdana, sans-serif" opacity="0.95">23</text><text x="310" y="719" fill="#B3F9E6" font-size="16" font-family="Trebuchet MS, Verdana, sans-serif" opacity="0.95">24</text><text x="410" y="719" fill="#B3F9E6" font-size="16" font-family="Trebuchet MS, Verdana, sans-serif" opacity="0.95">25</text><text x="510" y="719" fill="#B3F9E6" font-size="16" font-family="Trebuchet MS, Verdana, sans-serif" opacity="0.95">26</text><text x="610" y="719" fill="#B3F9E6" font-size="16" font-family="Trebuchet MS, Verdana, sans-serif" opacity="0.95">27</text><text x="710" y="719" fill="#B3F9E6" font-size="16" font-family="Trebuchet MS, Verdana, sans-serif" opacity="0.95">28</text><text x="810" y="719" fill="#B3F9E6" font-size="16" font-family="Trebuchet MS, Verdana, sans-serif" opacity="0.95">29</text><text x="910" y="719" fill="#B3F9E6" font-size="16" font-family="Trebuchet MS, Verdana, sans-serif" opacity="0.95">30</text><text x="910" y="619" fill="#B3F9E6" font-size="16" font-family="Trebuchet MS, Verdana, sans-serif" opacity="0.95">31</text><text x="810" y="619" fill="#B3F9E6" font-size="16" font-family="Trebuchet MS, Verdana, sans-serif" opacity="0.95">32</text><text x="710" y="619" fill="#B3F9E6" font-size="16" font-family="Trebuchet MS, Verdana, sans-serif" opacity="0.95">33</text><text x="610" y="619" fill="#B3F9E6" font-size="16" font-family="Trebuchet MS, Verdana, sans-serif" opacity="0.95">34</text><text x="510" y="619" fill="#B3F9E6" font-size="16" font-family="Trebuchet MS, Verdana, sans-serif" opacity="0.95">35</text><text x="410" y="619" fill="#B3F9E6" font-size="16" font-family="Trebuchet MS, Verdana, sans-serif" opacity="0.95">36</text><text x="310" y="619" fill="#B3F9E6" font-size="16" font-family="Trebuchet MS, Verdana, sans-serif" opacity="0.95">37</text><text x="210" y="619" fill="#B3F9E6" font-size="16" font-family="Trebuchet MS, Verdana, sans-serif" opacity="0.95">38</text><text x="110" y="619" fill="#B3F9E6" font-size="16" font-family="Trebuchet MS, Verdana, sans-serif" opacity="0.95">39</text><text x="10" y="619" fill="#B3F9E6" font-size="16" font-family="Trebuchet MS, Verdana, sans-serif" opacity="0.95">40</text><text x="10" y="519" fill="#B3F9E6" font-size="16" font-family="Trebuchet MS, Verdana, sans-serif" opacity="0.95">41</text><text x="110" y="519" fill="#B3F9E6" font-size="16" font-family="Trebuchet MS, Verdana, sans-serif" opacity="0.95">42</text><text x="210" y="519" fill="#B3F9E6" font-size="16" font-family="Trebuchet MS, Verdana, sans-serif" opacity="0.95">43</text><text x="310" y="519" fill="#B3F9E6" font-size="16" font-family="Trebuchet MS, Verdana, sans-serif" opacity="0.95">44</text><text x="410" y="519" fill="#B3F9E6" font-size="16" font-family="Trebuchet MS, Verdana, sans-serif" opacity="0.95">45</text><text x="510" y="519" fill="#B3F9E6" font-size="16" font-family="Trebuchet MS, Verdana, sans-serif" opacity="0.95">46</text><text x="610" y="519" fill="#B3F9E6" font-size="16" font-family="Trebuchet MS, Verdana, sans-serif" opacity="0.95">47</text><text x="710" y="519" fill="#B3F9E6" font-size="16" font-family="Trebuchet MS, Verdana, sans-serif" opacity="0.95">48</text><text x="810" y="519" fill="#B3F9E6" font-size="16" font-family="Trebuchet MS, Verdana, sans-serif" opacity="0.95">49</text><text x="910" y="519" fill="#B3F9E6" font-size="16" font-family="Trebuchet MS, Verdana, sans-serif" opacity="0.95">50</text><text x="910" y="419" fill="#B3F9E6" font-size="16" font-family="Trebuchet MS, Verdana, sans-serif" opacity="0.95">51</text><text x="810" y="419" fill="#B3F9E6" font-size="16" font-family="Trebuchet MS, Verdana, sans-serif" opacity="0.95">52</text><text x="710" y="419" fill="#B3F9E6" font-size="16" font-family="Trebuchet MS, Verdana, sans-serif" opacity="0.95">53</text><text x="610" y="419" fill="#B3F9E6" font-size="16" font-family="Trebuchet MS, Verdana, sans-serif" opacity="0.95">54</text><text x="510" y="419" fill="#B3F9E6" font-size="16" font-family="Trebuchet MS, Verdana, sans-serif" opacity="0.95">55</text><text x="410" y="419" fill="#B3F9E6" font-size="16" font-family="Trebuchet MS, Verdana, sans-serif" opacity="0.95">56</text><text x="310" y="419" fill="#B3F9E6" font-size="16" font-family="Trebuchet MS, Verdana, sans-serif" opacity="0.95">57</text><text x="210" y="419" fill="#B3F9E6" font-size="16" font-family="Trebuchet MS, Verdana, sans-serif" opacity="0.95">58</text><text x="110" y="419" fill="#B3F9E6" font-size="16" font-family="Trebuchet MS, Verdana, sans-serif" opacity="0.95">59</text><text x="10" y="419" fill="#B3F9E6" font-size="16" font-family="Trebuchet MS, Verdana, sans-serif" opacity="0.95">60</text><text x="10" y="319" fill="#B3F9E6" font-size="16" font-family="Trebuchet MS, Verdana, sans-serif" opacity="0.95">61</text><text x="110" y="319" fill="#B3F9E6" font-size="16" font-family="Trebuchet MS, Verdana, sans-serif" opacity="0.95">62</text><text x="210" y="319" fill="#B3F9E6" font-size="16" font-family="Trebuchet MS, Verdana, sans-serif" opacity="0.95">63</text><text x="310" y="319" fill="#B3F9E6" font-size="16" font-family="Trebuchet MS, Verdana, sans-serif" opacity="0.95">64</text><text x="410" y="319" fill="#B3F9E6" font-size="16" font-family="Trebuchet MS, Verdana, sans-serif" opacity="0.95">65</text><text x="510" y="319" fill="#B3F9E6" font-size="16" font-family="Trebuchet MS, Verdana, sans-serif" opacity="0.95">66</text><text x="610" y="319" fill="#B3F9E6" font-size="16" font-family="Trebuchet MS, Verdana, sans-serif" opacity="0.95">67</text><text x="710" y="319" fill="#B3F9E6" font-size="16" font-family="Trebuchet MS, Verdana, sans-serif" opacity="0.95">68</text><text x="810" y="319" fill="#B3F9E6" font-size="16" font-family="Trebuchet MS, Verdana, sans-serif" opacity="0.95">69</text><text x="910" y="319" fill="#B3F9E6" font-size="16" font-family="Trebuchet MS, Verdana, sans-serif" opacity="0.95">70</text><text x="910" y="219" fill="#B3F9E6" font-size="16" font-family="Trebuchet MS, Verdana, sans-serif" opacity="0.95">71</text><text x="810" y="219" fill="#B3F9E6" font-size="16" font-family="Trebuchet MS, Verdana, sans-serif" opacity="0.95">72</text><text x="710" y="219" fill="#B3F9E6" font-size="16" font-family="Trebuchet MS, Verdana, sans-serif" opacity="0.95">73</text><text x="610" y="219" fill="#B3F9E6" font-size="16" font-family="Trebuchet MS, Verdana, sans-serif" opacity="0.95">74</text><text x="510" y="219" fill="#B3F9E6" font-size="16" font-family="Trebuchet MS, Verdana, sans-serif" opacity="0.95">75</text><text x="410" y="219" fill="#B3F9E6" font-size="16" font-family="Trebuchet MS, Verdana, sans-serif" opacity="0.95">76</text><text x="310" y="219" fill="#B3F9E6" font-size="16" font-family="Trebuchet MS, Verdana, sans-serif" opacity="0.95">77</text><text x="210" y="219" fill="#B3F9E6" font-size="16" font-family="Trebuchet MS, Verdana, sans-serif" opacity="0.95">78</text><text x="110" y="219" fill="#B3F9E6" font-size="16" font-family="Trebuchet MS, Verdana, sans-serif" opacity="0.95">79</text><text x="10" y="219" fill="#B3F9E6" font-size="16" font-family="Trebuchet MS, Verdana, sans-serif" opacity="0.95">80</text><text x="10" y="119" fill="#B3F9E6" font-size="16" font-family="Trebuchet MS, Verdana, sans-serif" opacity="0.95">81</text><text x="110" y="119" fill="#B3F9E6" font-size="16" font-family="Trebuchet MS, Verdana, sans-serif" opacity="0.95">82</text><text x="210" y="119" fill="#B3F9E6" font-size="16" font-family="Trebuchet MS, Verdana, sans-serif" opacity="0.95">83</text><text x="310" y="119" fill="#B3F9E6" font-size="16" font-family="Trebuchet MS, Verdana, sans-serif" opacity="0.95">84</text><text x="410" y="119" fill="#B3F9E6" font-size="16" font-family="Trebuchet MS, Verdana, sans-serif" opacity="0.95">85</text><text x="510" y="119" fill="#B3F9E6" font-size="16" font-family="Trebuchet MS, Verdana, sans-serif" opacity="0.95">86</text><text x="610" y="119" fill="#B3F9E6" font-size="16" font-family="Trebuchet MS, Verdana, sans-serif" opacity="0.95">87</text><text x="710" y="119" fill="#B3F9E6" font-size="16" font-family="Trebuchet MS, Verdana, sans-serif" opacity="0.95">88</text><text x="810" y="119" fill="#B3F9E6" font-size="16" font-family="Trebuchet MS, Verdana, sans-serif" opacity="0.95">89</text><text x="910" y="119" fill="#B3F9E6" font-size="16" font-family="Trebuchet MS, Verdana, sans-serif" opacity="0.95">90</text><text x="910" y="19" fill="#B3F9E6" font-size="16" font-family="Trebuchet MS, Verdana, sans-serif" opacity="0.95">91</text><text x="810" y="19" fill="#B3F9E6" font-size="16" font-family="Trebuchet MS, Verdana, sans-serif" opacity="0.95">92</text><text x="710" y="19" fill="#B3F9E6" font-size="16" font-family="Trebuchet MS, Verdana, sans-serif" opacity="0.95">93</text><text x="610" y="19" fill="#B3F9E6" font-size="16" font-family="Trebuchet MS, Verdana, sans-serif" opacity="0.95">94</text><text x="510" y="19" fill="#B3F9E6" font-size="16" font-family="Trebuchet MS, Verdana, sans-serif" opacity="0.95">95</text><text x="410" y="19" fill="#B3F9E6" font-size="16" font-family="Trebuchet MS, Verdana, sans-serif" opacity="0.95">96</text><text x="310" y="19" fill="#B3F9E6" font-size="16" font-family="Trebuchet MS, Verdana, sans-serif" opacity="0.95">97</text><text x="210" y="19" fill="#B3F9E6" font-size="16" font-family="Trebuchet MS, Verdana, sans-serif" opacity="0.95">98</text><text x="110" y="19" fill="#B3F9E6" font-size="16" font-family="Trebuchet MS, Verdana, sans-serif" opacity="0.95">99</text><text x="10" y="19" fill="#B3F9E6" font-size="16" font-family="Trebuchet MS, Verdana, sans-serif" opacity="0.95">100</text>
  </g>

  <defs>
    <clipPath id="clipBoard">
      <rect x="8" y="8" width="984" height="984" rx="20"/>
    </clipPath>
  </defs>
</svg>
